<svg width="48" height="476" viewBox="0 0 48 476" fill="none" xmlns="http://www.w3.org/2000/svg">
<path d="M24 255L23 431.001" stroke="black" stroke-width="2"/>
<path d="M44.8016 232C44.8016 243.306 35.5713 252.5 24.1508 252.5C12.7302 252.5 3.5 243.306 3.5 232C3.5 220.694 12.7302 211.5 24.1508 211.5C35.5713 211.5 44.8016 220.694 44.8016 232Z" stroke="#EB5424" stroke-width="5"/>
<path d="M44.8016 23C44.8016 34.3065 35.5713 43.5 24.1508 43.5C12.7302 43.5 3.5 34.3065 3.5 23C3.5 11.6935 12.7302 2.5 24.1508 2.5C35.5713 2.5 44.8016 11.6935 44.8016 23Z" stroke="#EB5424" stroke-width="5"/>
<path d="M43.8016 453C43.8016 464.306 34.5713 473.5 23.1508 473.5C11.7302 473.5 2.5 464.306 2.5 453C2.5 441.694 11.7302 432.5 23.1508 432.5C34.5713 432.5 43.8016 441.694 43.8016 453Z" stroke="#EB5424" stroke-width="5"/>
<line x1="25" y1="46" x2="25" y2="211" stroke="black" stroke-width="2"/>
</svg>
