<svg width="30" height="30" viewBox="0 0 30 30" fill="none" xmlns="http://www.w3.org/2000/svg">
<path fill-rule="evenodd" clip-rule="evenodd" d="M7.26433 1.68652C5.78479 1.68652 4.36582 2.27412 3.31943 3.32011C2.27304 4.3661 1.68489 5.78484 1.68433 7.26438V22.1444C1.68433 23.6243 2.27222 25.0436 3.31867 26.09C4.36512 27.1365 5.78442 27.7244 7.26433 27.7244H22.1443C23.6239 27.7238 25.0426 27.1357 26.0886 26.0893C27.1346 25.0429 27.7222 23.6239 27.7222 22.1444V7.26438C27.7216 5.78522 27.1338 4.3668 26.0878 3.32087C25.0419 2.27494 23.6235 1.68709 22.1443 1.68652H7.26433ZM23.7493 7.27295C23.7493 7.69919 23.58 8.10798 23.2786 8.40937C22.9772 8.71077 22.5684 8.8801 22.1422 8.8801C21.7159 8.8801 21.3072 8.71077 21.0058 8.40937C20.7044 8.10798 20.535 7.69919 20.535 7.27295C20.535 6.84671 20.7044 6.43793 21.0058 6.13653C21.3072 5.83513 21.7159 5.66581 22.1422 5.66581C22.5684 5.66581 22.9772 5.83513 23.2786 6.13653C23.58 6.43793 23.7493 6.84671 23.7493 7.27295ZM14.7065 10.2472C13.5244 10.2472 12.3907 10.7168 11.5548 11.5527C10.7189 12.3886 10.2493 13.5223 10.2493 14.7044C10.2493 15.8865 10.7189 17.0202 11.5548 17.8561C12.3907 18.6919 13.5244 19.1615 14.7065 19.1615C15.8886 19.1615 17.0223 18.6919 17.8581 17.8561C18.694 17.0202 19.1636 15.8865 19.1636 14.7044C19.1636 13.5223 18.694 12.3886 17.8581 11.5527C17.0223 10.7168 15.8886 10.2472 14.7065 10.2472ZM8.10433 14.7044C8.10433 12.954 8.79968 11.2752 10.0374 10.0375C11.2752 8.79974 12.9539 8.10438 14.7043 8.10438C16.4548 8.10438 18.1335 8.79974 19.3712 10.0375C20.609 11.2752 21.3043 12.954 21.3043 14.7044C21.3043 16.4548 20.609 18.1335 19.3712 19.3713C18.1335 20.609 16.4548 21.3044 14.7043 21.3044C12.9539 21.3044 11.2752 20.609 10.0374 19.3713C8.79968 18.1335 8.10433 16.4548 8.10433 14.7044Z" fill="white"/>
</svg>
