<svg width="33" height="33" viewBox="0 0 33 33" fill="none" xmlns="http://www.w3.org/2000/svg">
<path d="M31.075 33C27.2556 33 23.4819 32.1677 19.7542 30.503C16.0264 28.8383 12.6347 26.4776 9.57917 23.4208C6.52361 20.3641 4.1635 16.9724 2.49883 13.2458C0.834167 9.51928 0.00122222 5.74567 0 1.925C0 1.375 0.183333 0.916667 0.55 0.55C0.916667 0.183333 1.375 0 1.925 0H9.35C9.77778 0 10.1597 0.145444 10.4958 0.436333C10.8319 0.727222 11.0306 1.07067 11.0917 1.46667L12.2833 7.88333C12.3444 8.37222 12.3292 8.78472 12.2375 9.12083C12.1458 9.45694 11.9778 9.74722 11.7333 9.99167L7.2875 14.4833C7.89861 15.6139 8.624 16.7059 9.46367 17.7595C10.3033 18.8131 11.2279 19.8293 12.2375 20.8083C13.1847 21.7556 14.1778 22.6343 15.2167 23.4447C16.2556 24.255 17.3556 24.9957 18.5167 25.6667L22.825 21.3583C23.1 21.0833 23.4593 20.8774 23.903 20.7405C24.3467 20.6036 24.7818 20.5651 25.2083 20.625L31.5333 21.9083C31.9611 22.0306 32.3125 22.2524 32.5875 22.5738C32.8625 22.8953 33 23.254 33 23.65V31.075C33 31.625 32.8167 32.0833 32.45 32.45C32.0833 32.8167 31.625 33 31.075 33Z" fill="#43485C"/>
</svg>
