<svg width="33" height="40" viewBox="0 0 33 40" fill="none" xmlns="http://www.w3.org/2000/svg">
<path d="M16.5 19C14.9371 19 13.4382 18.4732 12.3331 17.5355C11.228 16.5979 10.6071 15.3261 10.6071 14C10.6071 12.6739 11.228 11.4021 12.3331 10.4645C13.4382 9.52678 14.9371 9 16.5 9C18.0629 9 19.5618 9.52678 20.6669 10.4645C21.772 11.4021 22.3929 12.6739 22.3929 14C22.3929 14.6566 22.2404 15.3068 21.9443 15.9134C21.6481 16.52 21.2141 17.0712 20.6669 17.5355C20.1197 17.9998 19.4701 18.3681 18.7551 18.6194C18.0401 18.8707 17.2739 19 16.5 19ZM16.5 0C12.1239 0 7.92709 1.475 4.83274 4.1005C1.73839 6.72601 0 10.287 0 14C0 24.5 16.5 40 16.5 40C16.5 40 33 24.5 33 14C33 10.287 31.2616 6.72601 28.1673 4.1005C25.0729 1.475 20.8761 0 16.5 0Z" fill="#43485C"/>
</svg>
